<svg width="284" height="50" viewBox="0 0 284 50" fill="none" xmlns="http://www.w3.org/2000/svg">
<path d="M0 25C0 11.1929 11.1929 0 25 0H284V50H25C11.1929 50 0 38.8071 0 25Z" fill="url(#paint0_linear_408_81096)"/>
<path d="M35.5981 27.8408H24.3894C21.2059 27.981 21.2011 32.8575 24.3894 33H35.5981C36.9226 33 38 31.8427 38 30.4204C38 28.9981 36.9226 27.8408 35.5981 27.8408ZM35.5981 32.4267H24.3894C21.9176 32.3273 21.9124 28.5157 24.3894 28.4141H35.5981C36.6281 28.4141 37.4663 29.3141 37.4663 30.4204C37.4663 31.5267 36.6281 32.4267 35.5981 32.4267Z" fill="white"/>
<path d="M25.1118 29.0713C24.8641 28.8075 24.4886 29.2105 24.7344 29.4766L25.6132 30.4205L24.7344 31.3643C24.4889 31.6302 24.8639 32.0336 25.1118 31.7696C25.1118 31.7696 26.1793 30.6231 26.1793 30.6231C26.2835 30.5112 26.2835 30.3298 26.1793 30.2178L25.1118 29.0713Z" fill="white"/>
<path d="M27.8591 31.2803H26.5248C26.1744 31.2865 26.1737 31.8472 26.5248 31.8535H27.8591C28.2096 31.8473 28.2102 31.2866 27.8591 31.2803Z" fill="white"/>
<path d="M31.47 21.7568L31.3764 23.4787C31.372 23.5603 31.4001 23.6402 31.4541 23.698C31.508 23.756 31.5827 23.7862 31.6584 23.7816L33.2615 23.6811C33.3269 23.6769 33.3884 23.6471 33.4348 23.5973L36.8619 19.908C37.1379 19.6116 37.1938 19.1618 37.038 18.7746L37.4066 18.3787C37.6144 18.1556 37.6144 17.7924 37.4066 17.5693L37.0277 17.1622C36.8255 16.9456 36.4747 16.9463 36.274 17.1623L35.8414 17.627C35.5306 17.5532 35.2034 17.6361 34.9745 17.8817L31.5474 21.5711C31.5013 21.6206 31.4736 21.6867 31.47 21.7568ZM36.6503 17.5676L37.0293 17.9734L36.7146 18.3113C36.702 18.2989 36.3372 17.9015 36.3336 17.9084L36.6503 17.5676ZM35.3522 18.2869C35.5135 18.1136 35.7999 18.1398 35.991 18.3446L36.4306 18.8168C36.6217 19.0219 36.6456 19.3296 36.4843 19.503L33.6578 22.5457C33.5054 21.9684 33.0352 21.4907 32.486 21.3723L35.3522 18.2869ZM31.9956 21.9242C32.5932 21.7841 33.2314 22.3967 33.1902 23.0491L33.1288 23.1151L31.9266 23.1904L31.9956 21.9242Z" fill="white"/>
<path d="M35.9107 31.2106C36.7699 29.7778 35.0015 28.2079 33.8541 29.407C32.742 30.637 34.1941 32.5412 35.5333 31.6159L35.7411 31.839C35.8453 31.951 36.0142 31.951 36.1184 31.839C36.2227 31.7271 36.2227 31.5457 36.1184 31.4337L35.9107 31.2106ZM35.3637 31.0284C34.5933 31.7916 33.5044 30.641 34.2315 29.8122C34.996 29.0306 36.0911 30.2056 35.3637 31.0284Z" fill="white"/>
<path d="M27.3253 27.5544H32.6628C33.2515 27.5544 33.7303 27.04 33.7303 26.4079C33.7296 25.863 33.7308 24.7636 33.7303 24.221C33.7372 23.9768 33.434 23.8438 33.2781 24.0134C33.1761 24.1022 33.2009 24.2441 33.1431 24.3611C33.0647 24.5551 32.8575 24.6913 32.6628 24.6882C32.6628 24.6882 27.3253 24.6882 27.3253 24.6882C27.0311 24.6882 26.7916 24.4311 26.7916 24.1149V18.3826C26.7916 18.0664 27.0311 17.8093 27.3253 17.8093H31.4848L32.8877 19.316C32.992 19.428 33.1608 19.428 33.2651 19.316L33.6521 18.9005C33.7021 18.8468 33.7303 18.7739 33.7303 18.6979V18.3826C33.7303 17.7504 33.2515 17.2361 32.6628 17.2361H27.3253C26.7366 17.2361 26.2578 17.7504 26.2578 18.3826V26.4079C26.2578 27.04 26.7366 27.5544 27.3253 27.5544ZM32.6628 17.8093C32.957 17.8093 33.1965 18.0664 33.1965 18.3826V18.5791L33.0764 18.7081L32.2395 17.8093L32.6628 17.8093ZM26.7916 25.1076C26.9565 25.2087 27.1378 25.2577 27.3253 25.2614H32.6628C32.8514 25.2616 33.0424 25.2049 33.1965 25.1082C33.2384 25.4791 33.0324 25.8324 32.6628 25.8347H27.3253C26.9548 25.8308 26.7499 25.4812 26.7916 25.1076ZM26.7916 26.2484C26.9492 26.3472 27.13 26.4079 27.3253 26.4079H32.6628C32.8581 26.4079 33.0389 26.3472 33.1965 26.2484C33.2375 26.6245 33.0385 26.9763 32.6628 26.9811H27.3253C26.9515 26.977 26.7494 26.624 26.7916 26.2484Z" fill="white"/>
<path d="M32.3958 19.8157C32.7455 19.8097 32.7475 19.2488 32.3958 19.2424H27.5921C27.2428 19.2483 27.2401 19.8092 27.5921 19.8157H32.3958Z" fill="white"/>
<path d="M31.8941 20.6755C31.8941 20.5172 31.7748 20.3889 31.6272 20.3889H27.5921C27.4446 20.3889 27.3252 20.5172 27.3252 20.6755C27.3252 20.8338 27.4446 20.9622 27.5921 20.9622H31.6272C31.7748 20.9622 31.8941 20.8338 31.8941 20.6755Z" fill="white"/>
<path d="M31.2001 21.8218C31.2001 21.6635 31.0807 21.5352 30.9332 21.5352H27.5921C27.4446 21.5352 27.3252 21.6635 27.3252 21.8218C27.3252 21.9801 27.4446 22.1084 27.5921 22.1084H30.9332C31.0807 22.1084 31.2001 21.9801 31.2001 21.8218Z" fill="white"/>
<path d="M27.5921 22.6816C27.2421 22.6877 27.2408 23.2485 27.5921 23.2549H29.994C30.3441 23.2488 30.3454 22.688 29.994 22.6816H27.5921Z" fill="white"/>
<path d="M53.904 30.5V21.188H50.352V19.3H59.488V21.188H55.936V30.5H53.904ZM66.6758 26.004C66.6758 24.596 66.0038 23.892 64.9318 23.892C64.2278 23.892 63.4918 24.18 62.9158 24.852V30.5H60.9958V18.692H62.9158V22.996C63.5878 22.436 64.4838 22.116 65.4118 22.116C67.2998 22.116 68.5958 23.38 68.5958 25.588V30.5H66.6758V26.004ZM74.7279 30.692C72.0719 30.692 70.3279 28.964 70.3279 26.468C70.3279 23.94 72.1519 22.116 74.7119 22.116C77.0959 22.116 78.7759 23.684 78.7759 26.164C78.7759 26.42 78.7599 26.644 78.7279 26.884H72.2479C72.4079 28.276 73.3519 29.044 74.7599 29.044C75.7039 29.044 76.5039 28.692 77.1759 27.876L78.5199 28.9C77.6559 30.068 76.3279 30.692 74.7279 30.692ZM72.3439 25.444H76.8399C76.6319 24.292 75.8479 23.732 74.6959 23.732C73.4959 23.732 72.6479 24.34 72.3439 25.444ZM90.0466 30.692C86.5746 30.692 84.1266 28.324 84.1266 24.948C84.1266 21.524 86.6706 19.108 89.9346 19.108C91.7586 19.108 93.4226 19.876 94.5106 21.284L92.8146 22.404C92.1426 21.492 91.0866 21.012 89.9186 21.012C87.8066 21.012 86.2066 22.532 86.2066 24.932C86.2066 27.3 87.7586 28.788 90.1106 28.788C91.1346 28.788 92.0946 28.532 92.8946 28.036V25.748H90.2706V23.988H94.7986V29.06C93.4866 30.116 91.7906 30.692 90.0466 30.692ZM101.087 30.692C98.4313 30.692 96.6873 28.964 96.6873 26.468C96.6873 23.94 98.5113 22.116 101.071 22.116C103.455 22.116 105.135 23.684 105.135 26.164C105.135 26.42 105.119 26.644 105.087 26.884H98.6073C98.7673 28.276 99.7113 29.044 101.119 29.044C102.063 29.044 102.863 28.692 103.535 27.876L104.879 28.9C104.015 30.068 102.687 30.692 101.087 30.692ZM98.7033 25.444H103.199C102.991 24.292 102.207 23.732 101.055 23.732C99.8553 23.732 99.0073 24.34 98.7033 25.444ZM112.66 26.004C112.66 24.596 111.988 23.892 110.916 23.892C110.212 23.892 109.476 24.18 108.9 24.852V30.5H106.98V22.308H108.9V22.996C109.572 22.436 110.468 22.116 111.396 22.116C113.284 22.116 114.58 23.38 114.58 25.588V30.5H112.66V26.004ZM120.712 30.692C118.056 30.692 116.312 28.964 116.312 26.468C116.312 23.94 118.136 22.116 120.696 22.116C123.08 22.116 124.76 23.684 124.76 26.164C124.76 26.42 124.744 26.644 124.712 26.884H118.232C118.392 28.276 119.336 29.044 120.744 29.044C121.688 29.044 122.488 28.692 123.16 27.876L124.504 28.9C123.64 30.068 122.312 30.692 120.712 30.692ZM118.328 25.444H122.824C122.616 24.292 121.832 23.732 120.68 23.732C119.48 23.732 118.632 24.34 118.328 25.444ZM126.605 30.5V22.308H128.525V23.188C129.053 22.5 129.917 22.116 130.797 22.116C131.053 22.116 131.341 22.148 131.645 22.228L131.533 24.004C131.261 23.956 131.005 23.924 130.781 23.924C129.853 23.924 129.037 24.34 128.525 25.172V30.5H126.605ZM136.47 30.692C134.23 30.692 132.39 28.9 132.39 26.404C132.39 23.908 134.23 22.116 136.47 22.116C137.35 22.116 138.198 22.404 138.822 22.932V22.308H140.742V30.5H138.822V29.876C138.198 30.404 137.35 30.692 136.47 30.692ZM134.342 26.404C134.342 27.94 135.398 28.932 136.758 28.932C137.526 28.932 138.294 28.612 138.822 27.972V24.836C138.294 24.196 137.526 23.892 136.758 23.892C135.398 23.892 134.342 24.868 134.342 26.404ZM146.738 30.66C144.786 30.66 143.778 29.668 143.778 27.476V23.988H142.098V22.308H143.778V20.356H145.698V22.308H148.306V23.988H145.698V27.252C145.698 28.404 146.146 28.9 147.09 28.9C147.442 28.9 147.89 28.82 148.338 28.676L148.61 30.292C148.05 30.548 147.41 30.66 146.738 30.66ZM153.867 30.692C151.371 30.692 149.515 28.868 149.515 26.404C149.515 23.924 151.371 22.116 153.867 22.116C156.363 22.116 158.203 23.924 158.203 26.404C158.203 28.868 156.363 30.692 153.867 30.692ZM151.467 26.404C151.467 27.892 152.475 28.932 153.867 28.932C155.243 28.932 156.251 27.892 156.251 26.404C156.251 24.916 155.243 23.892 153.867 23.892C152.475 23.892 151.467 24.916 151.467 26.404ZM160.011 30.5V22.308H161.931V23.188C162.459 22.5 163.323 22.116 164.203 22.116C164.459 22.116 164.747 22.148 165.051 22.228L164.939 24.004C164.667 23.956 164.411 23.924 164.187 23.924C163.259 23.924 162.443 24.34 161.931 25.172V30.5H160.011Z" fill="white"/>
<defs>
<linearGradient id="paint0_linear_408_81096" x1="-38.3537" y1="25.3846" x2="284" y2="25.3846" gradientUnits="userSpaceOnUse">
<stop offset="0.0789996" stop-color="#C32782"/>
<stop offset="0.505" stop-color="#C32782" stop-opacity="0.776"/>
<stop offset="1" stop-color="white" stop-opacity="0"/>
</linearGradient>
</defs>
</svg>
