<svg width="35" height="33" viewBox="0 0 35 33" fill="none" xmlns="http://www.w3.org/2000/svg">
<path d="M29.7459 22.2864H5.22683C-1.737 22.5718 -1.74755 32.5044 5.22683 32.7946H29.7459C32.6432 32.7946 35 30.4375 35 27.5405C35 24.6435 32.6432 22.2864 29.7459 22.2864ZM29.7459 31.627H5.22683C-0.180332 31.4246 -0.191733 23.661 5.2269 23.454H29.7459C31.999 23.454 33.8324 25.2871 33.8324 27.5405C33.8324 29.7938 31.999 31.627 29.7459 31.627Z" fill="#414042"/>
<path d="M6.80743 24.7922C6.26568 24.2548 5.44416 25.0755 5.98192 25.6177L7.90431 27.5401L5.98192 29.4625C5.44473 30.0041 6.26512 30.8258 6.80743 30.2879C6.80743 30.288 9.14258 27.9528 9.14258 27.9528C9.37062 27.7248 9.37062 27.3553 9.14258 27.1273L6.80743 24.7922Z" fill="#414042"/>
<path d="M12.8157 29.2915H9.89673C9.13022 29.3041 9.12873 30.4462 9.89673 30.4591H12.8157C13.5822 30.4464 13.5837 29.3044 12.8157 29.2915Z" fill="#414042"/>
<path d="M20.7154 9.8941L20.5108 13.4014C20.5011 13.5676 20.5626 13.7303 20.6807 13.8481C20.7986 13.9661 20.9619 14.0277 21.1276 14.0182L24.6343 13.8136C24.7774 13.805 24.912 13.7443 25.0134 13.6428L32.5103 6.12855C33.1141 5.52481 33.2362 4.60869 32.8954 3.81991L33.7019 3.0135C34.1562 2.55912 34.1562 1.81941 33.7019 1.36504L32.8729 0.535821C32.4305 0.0945594 31.6632 0.0959836 31.2242 0.536107L30.2778 1.48251C29.598 1.33211 28.8822 1.50108 28.3816 2.00127L20.8847 9.51583C20.7838 9.61674 20.7234 9.75129 20.7154 9.8941ZM32.0474 1.36162L32.8763 2.18799L32.1881 2.87625C32.1604 2.85099 31.3624 2.04165 31.3546 2.05573L32.0474 1.36162ZM29.2077 2.82651C29.5606 2.47362 30.1871 2.52692 30.605 2.94424L31.5668 3.906C31.9847 4.3236 32.0371 4.95043 31.6842 5.30361L25.5012 11.501C25.1678 10.3252 24.1394 9.35214 22.938 9.11106L29.2077 2.82651ZM21.8652 10.2351C23.1724 9.94976 24.5684 11.1975 24.4783 12.5263L24.3441 12.6608L21.7143 12.8142L21.8652 10.2351Z" fill="#414042"/>
<path d="M30.4294 29.1496C32.3091 26.2313 28.4406 23.0338 25.9308 25.4761C23.498 27.9814 26.6744 31.8599 29.6039 29.9752L30.0584 30.4297C30.2865 30.6577 30.6559 30.6577 30.8839 30.4297C31.112 30.2016 31.112 29.8322 30.8839 29.6041L30.4294 29.1496ZM29.2329 28.7786C27.5477 30.333 25.1657 27.9895 26.7564 26.3015C28.4287 24.7094 30.8242 27.1026 29.2329 28.7786Z" fill="#414042"/>
<path d="M11.6486 21.7024H23.3244C24.6122 21.7024 25.6595 20.6549 25.6595 19.3673C25.658 18.2574 25.6606 16.0182 25.6595 14.9131C25.6746 14.4155 25.0113 14.1447 24.6705 14.4901C24.4473 14.671 24.5015 14.9601 24.3751 15.1984C24.2035 15.5936 23.7504 15.8708 23.3244 15.8645C23.3244 15.8646 11.6486 15.8646 11.6486 15.8646C11.005 15.8646 10.481 15.3409 10.481 14.697V3.02125C10.481 2.37731 11.005 1.85367 11.6486 1.85367H20.7475L23.8164 4.92255C24.0444 5.15059 24.4138 5.15059 24.6419 4.92255L25.4885 4.07623C25.598 3.96677 25.6595 3.81826 25.6595 3.66347V3.02125C25.6595 1.73366 24.6122 0.686096 23.3244 0.686096H11.6486C10.3608 0.686096 9.31348 1.73366 9.31348 3.02125V19.3673C9.31348 20.6549 10.3608 21.7024 11.6486 21.7024ZM23.3244 1.85367C23.968 1.85367 24.4919 2.37731 24.4919 3.02125V3.42146L24.2291 3.68428L22.3985 1.85368L23.3244 1.85367ZM10.481 16.7189C10.8419 16.9247 11.2384 17.0247 11.6486 17.0321H23.3244C23.737 17.0325 24.1547 16.9169 24.4919 16.72C24.5836 17.4754 24.1328 18.1952 23.3244 18.1997H11.6486C10.8382 18.1919 10.3898 17.4798 10.481 16.7189ZM10.481 19.0425C10.8259 19.2436 11.2213 19.3673 11.6486 19.3673H23.3244C23.7517 19.3673 24.1471 19.2436 24.4919 19.0425C24.5816 19.8084 24.1462 20.525 23.3244 20.5349H11.6486C10.8309 20.5265 10.3888 19.8075 10.481 19.0425Z" fill="#414042"/>
<path d="M22.7407 5.94028C23.5055 5.92817 23.5101 4.78575 22.7407 4.77271H12.2325C11.4685 4.78457 11.4625 5.92713 12.2325 5.94028H22.7407Z" fill="#414042"/>
<path d="M21.643 7.69182C21.643 7.36942 21.3818 7.10803 21.0592 7.10803H12.2322C11.9095 7.10803 11.6484 7.36942 11.6484 7.69182C11.6484 8.01422 11.9095 8.27561 12.2322 8.27561H21.0592C21.3818 8.27561 21.643 8.01422 21.643 7.69182Z" fill="#414042"/>
<path d="M20.1248 10.0267C20.1248 9.70432 19.8636 9.44293 19.541 9.44293H12.2322C11.9095 9.44293 11.6484 9.70432 11.6484 10.0267C11.6484 10.3491 11.9095 10.6105 12.2322 10.6105H19.541C19.8636 10.6105 20.1248 10.3491 20.1248 10.0267Z" fill="#414042"/>
<path d="M12.2326 11.7778C11.4668 11.7902 11.464 12.9324 12.2326 12.9454H17.4867C18.2525 12.933 18.2554 11.7908 17.4867 11.7778H12.2326Z" fill="#414042"/>
</svg>
