<svg width="16" height="16" viewBox="0 0 16 16" fill="none" xmlns="http://www.w3.org/2000/svg">
<path d="M10.4801 1.76465C10.3624 2.41171 10.2742 2.82347 10.0683 3.11759C9.15654 2.44112 8.03889 2.05877 6.83301 2.05877C3.8036 2.05877 1.33301 4.52935 1.33301 7.55877C1.33301 9.44112 2.27418 11.0882 3.68595 12.0882C3.39183 12.2352 3.24477 12.4117 3.24477 12.6176V13.1764C2.86242 13.3529 2.65654 13.5588 2.65654 13.8235V14.8235C2.65654 15.5882 4.77418 15.9999 6.86242 15.9999C8.95066 15.9999 11.0683 15.5882 11.0683 14.8235V13.8235C11.0683 13.5882 10.8624 13.3529 10.4801 13.1764V12.6176C10.4801 12.4117 10.3036 12.2352 10.0095 12.0882C11.4212 11.0882 12.333 9.44112 12.333 7.58818C12.333 6.29406 11.8918 5.11759 11.1271 4.17641C11.3918 3.97053 11.8036 3.8823 12.4507 3.76465C10.9507 3.47053 10.7448 3.26465 10.4801 1.76465ZM3.09771 14.9117C3.03889 14.8529 3.00948 14.7941 3.00948 14.7646V14.2646C3.03889 14.2941 3.0683 14.2941 3.09771 14.3235V14.9117ZM3.42124 15.0882C3.36242 15.0588 3.3036 15.0294 3.24477 14.9999V14.3823C3.3036 14.4117 3.36242 14.4411 3.42124 14.4411V15.0882ZM3.5683 12.9999C3.59771 13.0294 3.65654 13.0588 3.68595 13.0588V13.5882C3.59771 13.5294 3.5683 13.4705 3.5683 13.4411V12.9999ZM3.83301 15.2352C3.74477 15.2058 3.62713 15.1764 3.5683 15.147V14.5294C3.65654 14.5588 3.74477 14.5882 3.83301 14.6176V15.2352ZM3.83301 13.6764V13.147C3.89183 13.1764 3.95065 13.1764 4.00948 13.2058V13.7352C3.92124 13.7352 3.86242 13.7058 3.83301 13.6764ZM9.74477 15.2646C9.09771 15.4411 8.12713 15.5588 6.86242 15.5588C5.59771 15.5588 4.62713 15.4117 3.98007 15.2646V14.647C4.77418 14.8529 5.83301 14.9411 6.86242 14.9411C7.92124 14.9411 8.95066 14.8529 9.74477 14.647V15.2646ZM4.12713 13.7941V13.2646C4.21536 13.2941 4.3036 13.3235 4.39183 13.3529V13.9117C4.3036 13.8529 4.21536 13.8235 4.12713 13.7941ZM4.53889 13.9117V13.3529C5.18595 13.4999 6.00948 13.5588 6.86242 13.5588C7.68595 13.5588 8.53889 13.4705 9.18595 13.3235V13.9117C8.62713 14.0294 7.86242 14.147 6.86242 14.147C5.86242 14.147 5.09771 14.0588 4.53889 13.9117ZM9.33301 13.8823V13.3235C9.42124 13.2941 9.50948 13.2646 9.59771 13.2352V13.7646C9.53889 13.8235 9.45066 13.8529 9.33301 13.8823ZM10.6271 14.3235C10.6565 14.2941 10.6859 14.2941 10.7154 14.2646V14.7646C10.7154 14.7941 10.686 14.8529 10.6271 14.9117V14.3235ZM10.333 14.4705C10.3918 14.4411 10.4507 14.4117 10.5095 14.4117V15.0294C10.4507 15.0588 10.4212 15.0882 10.333 15.1176V14.4705ZM10.0683 13.0588C10.0977 13.0294 10.1271 13.0294 10.1565 12.9999V13.4117C10.1565 13.4411 10.1271 13.4999 10.0683 13.5588V13.0588ZM10.186 14.5294V15.147C10.0977 15.1764 10.0095 15.2058 9.92124 15.2352V14.6176C10.0095 14.5882 10.0977 14.5588 10.186 14.5294ZM9.77419 13.7352V13.2058C9.83301 13.1764 9.89183 13.1764 9.95066 13.147V13.6764C9.89183 13.6764 9.83301 13.7058 9.77419 13.7352ZM6.83301 12.4705C4.12713 12.4705 1.92124 10.2646 1.92124 7.55877C1.92124 4.85288 4.12713 2.647 6.83301 2.647C7.86242 2.647 8.8036 2.97053 9.5683 3.49994C9.3036 3.61759 8.98007 3.67641 8.50948 3.76465C10.0095 4.02935 10.2154 4.23524 10.4801 5.73524C10.5683 5.23524 10.6271 4.91171 10.7448 4.647C11.3624 5.47053 11.7448 6.49994 11.7448 7.58818C11.7448 10.2646 9.53889 12.4705 6.83301 12.4705Z" fill="#414042"/>
<path d="M9.27367 5.14697C8.80308 5.49991 8.68543 5.49991 8.21484 5.17638C8.56778 5.64697 8.56779 5.76462 8.24426 6.23521C8.71484 5.88227 8.83249 5.88227 9.30308 6.2058C8.95014 5.73521 8.95014 5.61756 9.27367 5.14697Z" fill="#414042"/>
<path d="M14.3922 5.1471C13.8334 5.23534 13.7158 5.17651 13.4511 4.67651C13.5393 5.23534 13.4805 5.35298 12.9805 5.61769C13.5393 5.52945 13.6569 5.58828 13.9216 6.08828C13.8334 5.52945 13.8628 5.44122 14.3922 5.1471Z" fill="#414042"/>
<path d="M9.45071 1.47059C9.45071 0.882353 9.50954 0.794118 10.0389 0.588235C9.45071 0.588235 9.36248 0.529412 9.15659 0C9.15659 0.588235 9.09777 0.676471 8.56836 0.882353C9.15659 0.852941 9.24483 0.911765 9.45071 1.47059Z" fill="#414042"/>
<path d="M10.2452 6.97057C10.3914 6.97057 10.5099 6.85206 10.5099 6.70587C10.5099 6.55967 10.3914 6.44116 10.2452 6.44116C10.099 6.44116 9.98047 6.55967 9.98047 6.70587C9.98047 6.85206 10.099 6.97057 10.2452 6.97057Z" fill="#414042"/>
<path d="M13.3917 3.3822C13.5379 3.3822 13.6564 3.26368 13.6564 3.11749C13.6564 2.9713 13.5379 2.85278 13.3917 2.85278C13.2455 2.85278 13.127 2.9713 13.127 3.11749C13.127 3.26368 13.2455 3.3822 13.3917 3.3822Z" fill="#414042"/>
<path d="M10.5387 7.82366C10.6199 7.82366 10.6857 7.75782 10.6857 7.6766C10.6857 7.59538 10.6199 7.52954 10.5387 7.52954C10.4574 7.52954 10.3916 7.59538 10.3916 7.6766C10.3916 7.75782 10.4574 7.82366 10.5387 7.82366Z" fill="#414042"/>
<path d="M8.80331 9.47063C8.88453 9.47063 8.95037 9.40479 8.95037 9.32357C8.95037 9.24235 8.88453 9.17651 8.80331 9.17651C8.72209 9.17651 8.65625 9.24235 8.65625 9.32357C8.65625 9.40479 8.72209 9.47063 8.80331 9.47063Z" fill="#414042"/>
<path d="M6.39218 4.58831C6.47339 4.58831 6.53923 4.52247 6.53923 4.44125C6.53923 4.36003 6.47339 4.29419 6.39218 4.29419C6.31096 4.29419 6.24512 4.36003 6.24512 4.44125C6.24512 4.52247 6.31096 4.58831 6.39218 4.58831Z" fill="#414042"/>
<path d="M13.5387 7.82366C13.6199 7.82366 13.6857 7.75782 13.6857 7.6766C13.6857 7.59538 13.6199 7.52954 13.5387 7.52954C13.4574 7.52954 13.3916 7.59538 13.3916 7.6766C13.3916 7.75782 13.4574 7.82366 13.5387 7.82366Z" fill="#414042"/>
</svg>
